# xmcd CD database file
# Copyright (C) 1993-1996 Ti Kan
#
# Track frame offsets:
#  150
#  17164
#  36805
#  63369
#  83893
#  103681
#  118828
#  141520
#  159770
#  174976
#  196026
#  213151
#  236249
#  259298
#
# Disc length: 3659 seconds
#
# Revision: 1
# Processed by: cddbd v1.5.2PL0 Copyright (c) Steve Scherf et al.
# Submitted via: Advanced CD Ripper Pro 2.0
#
DISCID=be0e490e
DTITLE=NÝHAT DOÐAN - ZORUNA MI GÝTTÝ
DYEAR=2007
DGENRE=
TTITLE0=AÞKLARIN EFENDÝSÝYÝM
TTITLE1=O BENÝ ÖLDÜRECEK
TTITLE2=ZORUNA MI GÝTTÝ
TTITLE3=TATLIYA BAÐLIYALIM
TTITLE4=ASLA
TTITLE5=KÝM SEVER SENÝ
TTITLE6=ARAMIZA RAYLAR GÝRDÝ
TTITLE7=HARPUTUN ÖTESÝNDE
TTITLE8=MARDÝN KAPISINDAN ATLIYALIM
TTITLE9=SEN
TTITLE10=DEMET DEMET
TTITLE11=ÖZÜR DÝLÝYORUM
TTITLE12=OLSAYDIM OLSAYDIM
TTITLE13=HELE YAR ZALÝM YAR
EXTD=
EXTT0=
EXTT1=
EXTT2=
EXTT3=
EXTT4=
EXTT5=
EXTT6=
EXTT7=
EXTT8=
EXTT9=
EXTT10=
EXTT11=
EXTT12=
EXTT13=
PLAYORDER=
